<svg width="33" height="29" viewBox="0 0 33 29" fill="none" xmlns="http://www.w3.org/2000/svg">
<g id="Group">
<path id="Vector" d="M32.0806 25.1341L29.8364 6.32705C29.796 5.95487 29.3762 5.67274 28.8676 5.67274H24.1369C24.1289 2.54523 20.706 0 16.5 0C12.294 0 8.87114 2.54523 8.86307 5.67274H4.13237C3.63185 5.67274 3.21207 5.95487 3.16363 6.32705L0.919373 25.1341C0.919373 25.1581 0.919373 25.1762 0.919373 25.2002C0.919373 27.2952 3.51076 29 6.69147 29H26.3085C29.4892 29 32.0806 27.2952 32.0806 25.2002C32.0806 25.1762 32.0806 25.1581 32.0806 25.1341ZM16.5 1.4407C19.6403 1.4407 22.1914 3.33761 22.1994 5.67274H10.8006C10.8086 3.33761 13.3597 1.4407 16.5 1.4407ZM26.3085 27.5533H6.69147C4.59253 27.5533 2.88108 26.5148 2.85686 25.2242L5.02039 7.11343H8.86307V9.64065C8.86307 10.0368 9.299 10.361 9.83181 10.361C10.3646 10.361 10.8006 10.0368 10.8006 9.64065V7.11343H22.1994V9.64065C22.1994 10.0368 22.6354 10.361 23.1682 10.361C23.701 10.361 24.1369 10.0368 24.1369 9.64065V7.11343H27.9796L30.1431 25.2302C30.1189 26.5148 28.4075 27.5533 26.3085 27.5533Z" fill="#600FFF"/>
</g>
</svg>
